<svg width="1231" height="252" viewBox="0 0 1231 252" fill="none" xmlns="http://www.w3.org/2000/svg">
<path d="M154.422 45.7656C151.703 47.7344 148.516 49.2344 144.859 50.2656C141.297 51.2031 136.469 51.6719 130.375 51.6719C124.375 51.6719 116.547 51.25 106.891 50.4062C104.641 56.5 102.344 63.625 100 71.7812L83.8281 126.906C63.8594 192.906 42.5781 229.938 19.9844 238C18.3906 238.656 16.3281 238.984 13.7969 238.984C11.3594 238.984 9.34375 238.656 7.75 238C6.25 237.438 4.98438 236.688 3.95312 235.75C1.89062 234.062 0.859375 232.375 0.859375 230.688C0.859375 229 1.28125 227.875 2.125 227.312L5.78125 225.062C19.2812 216.25 31.6562 192.812 42.9062 154.75L53.0312 120.438C62.125 89.5938 70.6094 65.3594 78.4844 47.7344C71.0781 47.0781 65.4531 46.75 61.6094 46.75C50.5469 46.75 42.5781 48.2969 37.7031 51.3906C32.9219 54.4844 29.5469 57.8594 27.5781 61.5156C25.7031 65.0781 24.7188 67.5625 24.625 68.9688C24.3438 71.5938 23.5 73.2813 22.0938 74.0312C20.6875 74.6875 18.9531 75.0156 16.8906 75.0156C14.9219 75.0156 12.8594 74.3125 10.7031 72.9062C8.54688 71.4062 6.76562 69.5312 5.35938 67.2812C2.35938 62.6875 1.1875 57.5313 1.84375 51.8125C2.5 46 4.375 41.0312 7.46875 36.9062C10.6562 32.6875 14.4062 29.2656 18.7188 26.6406C26.6875 21.7656 35.0781 19.3281 43.8906 19.3281C52.7969 19.3281 61.1875 19.7969 69.0625 20.7344C77.0312 21.5781 84.9531 22.5625 92.8281 23.6875C113.734 26.5 127.047 27.9062 132.766 27.9062C138.484 27.9062 142.703 27.5781 145.422 26.9219C148.234 26.2656 150.625 25.2812 152.594 23.9688C154.562 22.6563 155.922 21.8125 156.672 21.4375C157.516 20.9688 158.828 20.7344 160.609 20.7344C163.422 20.7344 164.641 22.8906 164.266 27.2031C163.891 31.4219 162.859 35.0781 161.172 38.1719C159.484 41.1719 157.234 43.7031 154.422 45.7656ZM237.531 200.594C237.531 209.219 240.578 213.531 246.672 213.531C250.891 213.531 254.359 212.875 257.078 211.562C259.891 210.25 261.766 209.594 262.703 209.594C264.672 209.594 265.656 210.625 265.656 212.688C265.656 220.75 261.438 227.688 253 233.5C244.094 239.594 235 241.094 225.719 238C219.625 235.844 215.125 231.203 212.219 224.078C210.812 220.422 210.109 217.094 210.109 214.094C210.109 209.219 210.578 204.062 211.516 198.625C202.797 216.438 191.969 228.719 179.031 235.469C173.875 238.094 168.391 239.406 162.578 239.406C156.766 239.406 151.703 238.234 147.391 235.891C143.172 233.453 139.562 230.125 136.562 225.906C130.469 217.094 127.703 206.031 128.266 192.719C128.828 176.031 133.75 159.672 143.031 143.641C151.562 128.641 162.344 116.406 175.375 106.938C188.406 97.2812 200.594 92.4531 211.938 92.4531C223.281 92.4531 232.422 97.6562 239.359 108.062C245.828 97.6562 251.547 92.4531 256.516 92.4531C261.859 92.4531 265.891 93.4375 268.609 95.4062C273.766 99.1562 275.594 102.438 274.094 105.25C250.562 153.438 238.469 183.438 237.812 195.25C237.625 196.938 237.531 198.719 237.531 200.594ZM159.484 201.156C159.484 212.406 163.094 218.031 170.312 218.031C175.844 218.031 182.641 213.344 190.703 203.969C202.516 190.188 212.969 171.625 222.062 148.281C224.969 140.969 227.406 133.656 229.375 126.344C229 119.969 226.328 115.281 221.359 112.281C219.672 111.25 217.141 110.734 213.766 110.734C210.484 110.734 206.594 111.953 202.094 114.391C197.688 116.828 193.375 120.156 189.156 124.375C185.031 128.594 181.141 133.609 177.484 139.422C173.922 145.141 170.781 151.375 168.062 158.125C162.344 172.562 159.484 186.906 159.484 201.156ZM278.312 213.25C278.312 210.344 278.922 207.672 280.141 205.234C281.453 202.703 283.047 200.594 284.922 198.906C288.859 195.25 292.984 193.422 297.297 193.422C301.047 193.422 302.922 195.344 302.922 199.188C302.922 208.938 306.156 215.734 312.625 219.578C314.969 220.984 317.406 221.688 319.938 221.688C322.469 221.688 324.625 221.406 326.406 220.844C328.188 220.281 329.828 219.391 331.328 218.172C334.703 215.453 336.391 212.219 336.391 208.469C336.391 204.719 335.547 201.297 333.859 198.203C332.172 195.016 330.062 191.688 327.531 188.219L319.516 176.969C308.266 161.969 302.641 148.141 302.641 135.484C302.641 124.984 307.094 115.469 316 106.938C326.125 97.2812 339.109 92.4531 354.953 92.4531C368.828 92.4531 379.656 95.875 387.438 102.719C393.812 108.25 397 114.578 397 121.703C397 129.109 394.188 135.016 388.562 139.422C383.5 143.359 378.438 144.812 373.375 143.781C371.125 143.312 369.391 142.188 368.172 140.406C366.953 138.531 366.719 136.422 367.469 134.078C368.219 131.734 368.594 129.297 368.594 126.766C368.594 124.234 368.125 121.891 367.188 119.734C366.25 117.578 364.984 115.75 363.391 114.25C360.109 111.156 356.641 109.609 352.984 109.609C349.422 109.609 346.469 110.031 344.125 110.875C341.781 111.625 339.719 112.75 337.938 114.25C334.281 117.625 332.453 121.797 332.453 126.766C332.453 131.641 333.297 135.859 334.984 139.422C336.672 142.984 338.734 146.547 341.172 150.109C343.703 153.672 346.422 157.281 349.328 160.938C352.234 164.594 354.906 168.438 357.344 172.469C363.25 181.938 366.203 190.281 366.203 197.5C366.203 204.625 364.703 210.625 361.703 215.5C358.703 220.281 354.812 224.406 350.031 227.875C339.812 235.469 328.375 239.266 315.719 239.266C303.625 239.266 294.062 236.359 287.031 230.547C281.219 225.672 278.312 219.906 278.312 213.25ZM500.219 239.266C478.938 239.266 461.969 219.062 449.312 178.656C444.344 187.844 440.219 196.188 436.938 203.688L428.5 222.812C426.062 228.062 423.766 232.141 421.609 235.047C419.547 237.953 417.203 239.406 414.578 239.406C411.953 239.406 409.562 238.938 407.406 238C405.25 237.156 403.375 236.031 401.781 234.625C398.5 231.625 396.859 228.344 396.859 224.781C396.859 223.375 397.844 220.609 399.812 216.484L405.438 205.094C422.969 169 438.859 123.25 453.109 67.8438C458.359 47.4063 462.156 29.0312 464.5 12.7188C465.531 4.84375 469.375 0.90625 476.031 0.90625C479.969 0.90625 483.25 1.9375 485.875 4C490.938 8.03125 493.375 12.3906 493.188 17.0781C493 21.6719 492.344 26.875 491.219 32.6875C490.188 38.5 488.781 44.875 487 51.8125C485.219 58.6563 483.203 65.8281 480.953 73.3281C474.859 92.9219 470.312 106.891 467.312 115.234L454.094 151.656C452.406 155.969 451.094 159.109 450.156 161.078C471.906 152.453 488.219 142.703 499.094 131.828C505.656 125.266 508.938 119.125 508.938 113.406C508.938 110.5 507.953 108.391 505.984 107.078C504.109 105.766 502.797 104.781 502.047 104.125C501.391 103.375 501.344 102.109 501.906 100.328C502.562 98.4531 504.344 96.6719 507.25 94.9844C510.156 93.2969 513.672 92.4531 517.797 92.4531C521.922 92.4531 525.344 92.8281 528.062 93.5781C530.875 94.3281 533.312 95.5 535.375 97.0938C539.969 100.375 542.266 105.016 542.266 111.016C542.266 117.016 541 122.547 538.469 127.609C535.938 132.578 532 137.406 526.656 142.094C516.062 151.094 499.094 159.812 475.75 168.25C478.656 180.719 484 191.688 491.781 201.156C499.188 210.156 505.984 214.656 512.172 214.656C515.453 214.656 518.266 214.094 520.609 212.969L525.672 210.438C526.703 209.875 527.688 209.594 528.625 209.594C530.969 209.594 532.141 211 532.141 213.812C532.141 216.25 531.719 218.406 530.875 220.281C530.031 222.062 528.812 223.984 527.219 226.047C525.719 228.109 523.75 230.125 521.312 232.094C515.219 236.875 508.188 239.266 500.219 239.266ZM551.969 188.781C552.344 180.625 553.703 172.844 556.047 165.438C558.391 157.938 561.531 150.719 565.469 143.781C569.406 136.75 574 130.141 579.25 123.953C584.594 117.672 590.359 112.188 596.547 107.5C609.953 97.4688 623.5 92.4531 637.188 92.4531C653.219 92.4531 663.906 99.0625 669.25 112.281C671.125 116.781 672.016 122.125 671.922 128.312C671.828 134.406 670.656 140.078 668.406 145.328C666.156 150.484 663.016 155.219 658.984 159.531C655.047 163.75 650.312 167.547 644.781 170.922C639.344 174.297 633.391 177.156 626.922 179.5C613.609 184.188 599.359 186.625 584.172 186.812C583.797 188.125 583.562 190.094 583.469 192.719C583.375 195.344 583.656 198.297 584.312 201.578C584.969 204.766 586.094 207.625 587.688 210.156C591.062 215.781 595.938 218.594 602.312 218.594C613.188 218.594 623.781 215.406 634.094 209.031C637.75 206.875 640.703 204.672 642.953 202.422C645.297 200.078 647.312 198.906 649 198.906C650.688 198.906 652.141 199.938 653.359 202C654.672 203.969 655.328 206.219 655.328 208.75C655.328 213.719 653.922 218.031 651.109 221.688C639.297 233.5 621.719 239.406 598.375 239.406C584.594 239.406 573.531 235.281 565.188 227.031C555.812 217.656 551.406 204.906 551.969 188.781ZM634.094 111.156C624.25 111.156 614.781 117.906 605.688 131.406C598 143.031 591.812 156.812 587.125 172.75C602.781 171.156 616.375 164.969 627.906 154.188C638.5 144.062 643.797 134.359 643.797 125.078C643.797 115.797 640.562 111.156 634.094 111.156ZM686.969 234.625C685.094 233.219 683.594 231.672 682.469 229.984C681.344 228.203 680.734 226.703 680.641 225.484C680.547 224.172 680.781 222.625 681.344 220.844C682 218.969 682.844 216.719 683.875 214.094C703 167.031 712.562 135.438 712.562 119.312C712.281 114.812 710.734 111.625 707.922 109.75L705.109 107.781C704.266 107.125 703.797 106 703.703 104.406C703.703 102.719 704.312 101.125 705.531 99.625C706.75 98.125 708.344 96.8125 710.312 95.6875C714.344 93.5312 718.469 92.4531 722.688 92.4531C727 92.4531 730.328 92.9219 732.672 93.8594C735.109 94.7969 737.172 96.0625 738.859 97.6562C742.422 101.031 744.203 104.594 744.203 108.344C744.297 112.094 743.875 115.891 742.938 119.734C742.094 123.578 741.062 127.375 739.844 131.125C738.625 134.781 737.406 138.297 736.188 141.672C734.969 144.953 734.172 147.391 733.797 148.984C733.047 152.266 732.766 154.328 732.953 155.172C735.203 153.203 736.562 151.281 737.031 149.406L742.516 139C754.703 117.062 766.609 102.531 778.234 95.4062C781.609 93.4375 785.641 92.4531 790.328 92.4531C795.109 92.4531 798.953 94.1406 801.859 97.5156C804.766 100.797 806.266 104.453 806.359 108.484C806.547 112.516 806.266 115.891 805.516 118.609C804.859 121.234 803.828 123.719 802.422 126.062C799.328 131.312 795.578 133.938 791.172 133.938C789.953 133.938 788.828 133.516 787.797 132.672L784.703 130C781.609 127.281 778.609 125.922 775.703 125.922C772.891 125.922 769.422 127.797 765.297 131.547C761.266 135.297 757.047 140.125 752.641 146.031C737.828 165.625 725.734 187.562 716.359 211.844L710.172 228.156C708.578 232.188 707.172 235.094 705.953 236.875C704.734 238.562 702.906 239.406 700.469 239.406C698.125 239.406 695.734 238.938 693.297 238C690.953 237.156 688.844 236.031 686.969 234.625Z" fill="#E52A9D"/>
<path fill-rule="evenodd" clip-rule="evenodd" d="M1095 43.94L946.247 198.714L887.442 137.372L862 163.797L946.247 251.566L1120.45 70.3663L1095 43.94ZM1022.17 215.596L1056.8 251.566L1231 70.3663L1205.56 43.94L1056.8 198.714L1047.59 189.15L1022.17 215.596Z" fill="#F2A365"/>
</svg>
